<?xml version="1.0" encoding="utf-8"?>
<!-- Generator: Adobe Illustrator 16.0.0, SVG Export Plug-In . SVG Version: 6.00 Build 0)  -->
<!DOCTYPE svg PUBLIC "-//W3C//DTD SVG 1.1//EN" "http://www.w3.org/Graphics/SVG/1.1/DTD/svg11.dtd">
<svg version="1.1" id="Layer_1" xmlns="http://www.w3.org/2000/svg" xmlns:xlink="http://www.w3.org/1999/xlink" x="0px" y="0px"
	 width="841.89px" height="595.28px" viewBox="0 0 841.89 595.28" enable-background="new 0 0 841.89 595.28" xml:space="preserve">
<path fill-rule="evenodd" clip-rule="evenodd" fill="#FFFFFF" d="M486.29,165.903c0,13.514,0,26.989,0,40.782
	c-0.99,0.044-1.945,0.111-2.901,0.127c-9.24,0.152-18.5-0.018-27.717,0.529c-9.671,0.573-15.033,5.904-16.133,15.534
	c-0.527,4.614-0.474,9.304-0.524,13.961c-0.078,7.232-0.021,14.464-0.021,21.996c15.237,0,30.267,0,45.688,0
	c-0.44,3.683-0.81,7.035-1.247,10.378c-1.479,11.305-3.021,22.601-4.433,33.915c-0.229,1.831-1.099,2.061-2.639,2.055
	c-11.331-0.045-22.663-0.024-33.994-0.024c-0.997,0-1.993,0-3.238,0c0,39.482,0,78.846,0,118.404c-16.012,0-31.776,0-47.847,0
	c0-39.448,0-78.812,0-118.399c-13.355,0-26.41,0-39.652,0c0-15.485,0-30.746,0-46.248c13.181,0,26.231,0,39.671,0
	c0-1.202-0.003-2.167,0.001-3.132c0.046-12.163-0.234-24.337,0.221-36.484c0.618-16.517,5.988-31.119,18.964-42.193
	c7.811-6.666,16.908-10.688,26.959-12.167c15.77-2.32,31.567-1.008,47.33,0.522C485.259,165.506,485.723,165.732,486.29,165.903z"/>
</svg>
