<?xml version="1.0" encoding="utf-8"?>
<!-- Generator: Adobe Illustrator 16.0.0, SVG Export Plug-In . SVG Version: 6.00 Build 0)  -->
<!DOCTYPE svg PUBLIC "-//W3C//DTD SVG 1.1//EN" "http://www.w3.org/Graphics/SVG/1.1/DTD/svg11.dtd">
<svg version="1.1" id="Layer_1" xmlns="http://www.w3.org/2000/svg" xmlns:xlink="http://www.w3.org/1999/xlink" x="0px" y="0px"
	 width="841.89px" height="595.28px" viewBox="0 0 841.89 595.28" enable-background="new 0 0 841.89 595.28" xml:space="preserve">
<path fill-rule="evenodd" clip-rule="evenodd" fill="#FFFFFF" d="M424.507,200.792c36,0,71.999,0,107.999,0
	c8.25,0,11.998,3.779,11.997,12.098c-0.001,5.667,0.02,11.333-0.009,17c-0.033,6.599-4.187,10.843-10.739,10.845
	c-72.832,0.017-145.665,0.017-218.497,0c-6.532-0.001-10.703-4.26-10.738-10.846c-0.032-6-0.024-12-0.003-18
	c0.025-7.027,4.144-11.093,11.243-11.095C352.008,200.788,388.258,200.792,424.507,200.792z"/>
<path fill-rule="evenodd" clip-rule="evenodd" fill="#FFFFFF" d="M424.513,280.797c36,0,71.999-0.002,107.998,0.001
	c8.26,0,11.988,3.771,11.99,12.101c0.001,5.667,0.021,11.333-0.004,17c-0.028,6.582-4.198,10.839-10.75,10.84
	c-72.831,0.017-145.663,0.017-218.494,0c-6.53-0.002-10.698-4.265-10.733-10.854c-0.031-5.749-0.012-11.499-0.007-17.249
	c0.007-7.952,3.857-11.836,11.753-11.837C352.348,280.795,388.431,280.797,424.513,280.797z"/>
<path fill-rule="evenodd" clip-rule="evenodd" fill="#FFFFFF" d="M424.507,360.802c36.083,0,72.166-0.004,108.249,0.002
	c7.919,0.002,11.747,3.874,11.745,11.841c-0.001,5.75,0.021,11.5-0.007,17.25c-0.033,6.602-4.186,10.847-10.739,10.848
	c-72.832,0.017-145.665,0.017-218.497,0c-6.533-0.001-10.702-4.258-10.737-10.849c-0.033-6.083-0.034-12.167-0.001-18.25
	c0.037-6.705,4.207-10.833,10.989-10.836C351.841,360.794,388.174,360.802,424.507,360.802z"/>
</svg>
