<?xml version="1.0" encoding="utf-8"?>
<!-- Generator: Adobe Illustrator 16.0.0, SVG Export Plug-In . SVG Version: 6.00 Build 0)  -->
<!DOCTYPE svg PUBLIC "-//W3C//DTD SVG 1.1//EN" "http://www.w3.org/Graphics/SVG/1.1/DTD/svg11.dtd">
<svg version="1.1" id="Layer_1" xmlns="http://www.w3.org/2000/svg" xmlns:xlink="http://www.w3.org/1999/xlink" x="0px" y="0px"
	 width="841.89px" height="595.28px" viewBox="0 0 841.89 595.28" enable-background="new 0 0 841.89 595.28" xml:space="preserve">
<path fill-rule="evenodd" clip-rule="evenodd" fill="#FFFFFF" d="M543.775,216.557c-6.067,8.721-13.402,16.611-22.141,23.133
	c-1.75,1.307-2.288,2.663-2.257,4.782c0.358,23.79-4.554,46.397-15.244,67.726c-9.809,19.567-22.998,36.43-40.004,50.217
	c-15.608,12.653-33.515,20.723-52.967,25.253c-28.67,6.678-57.022,5.382-84.812-4.604c-9.416-3.384-18.331-7.875-26.81-13.575
	c27,2.14,51.525-4.171,73.418-21.134c-23.09-1.954-38.544-13.491-47.045-35.085c7.597,0.85,14.691,1.044,22.084-0.932
	c-24.857-7.606-38.157-23.916-39.849-50.265c7.329,3.662,14.397,6.052,22.813,6.297c-11-8.113-18.152-18.109-20.942-30.904
	c-2.767-12.688-1.097-24.75,5.514-36.33c27.367,32.115,61.786,49.784,103.893,52.76c-0.328-3.68-0.78-7.035-0.903-10.401
	c-1.102-30.143,25.108-54.519,55.143-51.479c11.815,1.196,21.97,5.735,30.357,14.137c1.188,1.189,2.305,1.508,3.971,1.129
	c9.558-2.178,18.646-5.552,27.223-10.306c0.637-0.354,1.298-0.666,2.318-1.187c-3.832,11.892-11.16,20.575-21.268,27.13
	c0.146,0.302,0.292,0.604,0.438,0.906C525.734,221.403,534.76,218.979,543.775,216.557z"/>
</svg>
